<?xml version="1.0" encoding="UTF-8" standalone="no"?>
<svg
   xmlns:dc="http://purl.org/dc/elements/1.1/"
   xmlns:cc="http://creativecommons.org/ns#"
   xmlns:rdf="http://www.w3.org/1999/02/22-rdf-syntax-ns#"
   xmlns:svg="http://www.w3.org/2000/svg"
   xmlns="http://www.w3.org/2000/svg"
   version="1.1"
   id="svg4138"
   viewBox="0 0 333.02112 184.99999"
   height="52.211109mm"
   width="93.985962mm">
  <defs
     id="defs4140" />
  <metadata
     id="metadata4143">
    <rdf:RDF>
      <cc:Work
         rdf:about="">
        <dc:format>image/svg+xml</dc:format>
        <dc:type
           rdf:resource="http://purl.org/dc/dcmitype/StillImage" />
        <dc:title></dc:title>
      </cc:Work>
    </rdf:RDF>
  </metadata>
  <g
     style="opacity:1"
     transform="translate(-183.55628,-315.12834)"
     id="layer1">
    <circle
       r="86.975693"
       cy="407.62833"
       cx="350.93814"
       id="path4790"
       style="opacity:1;fill:#cccccc;fill-opacity:1;stroke:#b3b3b3;stroke-width:11.04860973;stroke-miterlimit:4;stroke-dasharray:none" />
    <path
       d="m 362.66502,331.97437 a 28.68363,28.68347 0 0 1 14.6926,37.63711 28.68363,28.68347 0 0 1 -37.51953,14.99078 28.68363,28.68347 0 0 1 -15.28818,-37.39915 28.68363,28.68347 0 0 1 37.27684,-15.58446 l -10.78406,26.57907 z"
       id="path4686"
       style="opacity:1;fill:#000000;fill-opacity:1;stroke:#000000;stroke-width:2.62678123;stroke-miterlimit:4;stroke-dasharray:none" />
    <text
       id="text4715"
       y="374.52914"
       x="184.62503"
       style="font-style:normal;font-weight:normal;font-size:17.5px;line-height:0%;font-family:sans-serif;letter-spacing:0px;word-spacing:0px;fill:#000000;fill-opacity:1;stroke:none;stroke-width:1px;stroke-linecap:butt;stroke-linejoin:miter;stroke-opacity:1"
       xml:space="preserve"><tspan
         style="font-style:normal;font-variant:normal;font-weight:bold;font-stretch:normal;font-size:56.25px;line-height:0%;font-family:FreeMono;-inkscape-font-specification:'FreeMono Bold';letter-spacing:0.5px"
         y="374.52914"
         x="184.62503"
         id="tspan4717">METR</tspan></text>
    <text
       id="text4719"
       y="374.22849"
       x="382.95581"
       style="font-style:normal;font-weight:normal;font-size:62.5px;line-height:0%;font-family:sans-serif;letter-spacing:0px;word-spacing:0px;fill:#000000;fill-opacity:1;stroke:none;stroke-width:1px;stroke-linecap:butt;stroke-linejoin:miter;stroke-opacity:1"
       xml:space="preserve"><tspan
         style="font-style:normal;font-variant:normal;font-weight:bold;font-stretch:normal;font-size:56.25px;line-height:0%;font-family:FreeMono;-inkscape-font-specification:'FreeMono Bold';letter-spacing:0.5px"
         y="374.22849"
         x="382.95581"
         id="tspan4721">GAME</tspan></text>
    <path
       d="m 315.35203,381.71378 a 28.68363,28.68347 0 0 1 14.6926,37.63711 28.68363,28.68347 0 0 1 -37.51953,14.99078 28.68363,28.68347 0 0 1 -15.28818,-37.39915 28.68363,28.68347 0 0 1 37.27684,-15.58445 l -10.78405,26.57906 z"
       id="path4686-7"
       style="opacity:1;fill:#000000;fill-opacity:1;stroke:#000000;stroke-width:2.62678123;stroke-miterlimit:4;stroke-dasharray:none" />
    <path
       d="m 362.6501,430.87064 a 28.68363,28.68347 0 0 1 14.6926,37.63712 28.68363,28.68347 0 0 1 -37.51953,14.99077 28.68363,28.68347 0 0 1 -15.28819,-37.39915 28.68363,28.68347 0 0 1 37.27685,-15.58445 l -10.78406,26.57906 z"
       id="path4686-76"
       style="opacity:1;fill:#000000;fill-opacity:1;stroke:#000000;stroke-width:2.62678123;stroke-miterlimit:4;stroke-dasharray:none" />
    <path
       d="m 410.30601,381.55811 a 28.68363,28.68347 0 0 1 14.6926,37.63711 28.68363,28.68347 0 0 1 -37.51953,14.99078 28.68363,28.68347 0 0 1 -15.28818,-37.39915 28.68363,28.68347 0 0 1 37.27684,-15.58445 l -10.78405,26.57906 z"
       id="path4686-8"
       style="opacity:1;fill:#000000;fill-opacity:1;stroke:#000000;stroke-width:2.62678123;stroke-miterlimit:4;stroke-dasharray:none" />
    <text
       id="text4764"
       y="375.9231"
       x="332.09839"
       style="font-style:normal;font-weight:normal;font-size:62.5px;line-height:200%;font-family:sans-serif;letter-spacing:0px;word-spacing:0px;fill:#000000;fill-opacity:1;stroke:none;stroke-width:1px;stroke-linecap:butt;stroke-linejoin:miter;stroke-opacity:1;opacity:1;"
       xml:space="preserve"><tspan
         style="font-style:normal;font-variant:normal;font-weight:bold;font-stretch:normal;font-size:62.5px;font-family:FreeMono;-inkscape-font-specification:'FreeMono Bold';opacity:1;fill:#ffcc00"
         y="375.9231"
         x="332.09839"
         id="tspan4766">O</tspan></text>
    <text
       id="text4768"
       y="424.73071"
       x="284.0787"
       style="font-style:normal;font-weight:normal;font-size:62.5px;line-height:200%;font-family:sans-serif;letter-spacing:0px;word-spacing:0px;fill:#000000;fill-opacity:1;stroke:none;stroke-width:1px;stroke-linecap:butt;stroke-linejoin:miter;stroke-opacity:1"
       xml:space="preserve"><tspan
         style="font-style:normal;font-variant:normal;font-weight:bold;font-stretch:normal;font-family:FreeMono;-inkscape-font-specification:'FreeMono Bold';fill:#00ffff"
         y="424.73071"
         x="284.0787"
         id="tspan4770">L</tspan></text>
    <text
       id="text4772"
       y="473.05377"
       x="331.83578"
       style="font-style:normal;font-weight:normal;font-size:62.5px;line-height:200%;font-family:sans-serif;letter-spacing:0px;word-spacing:0px;fill:#000000;fill-opacity:1;stroke:none;stroke-width:1px;stroke-linecap:butt;stroke-linejoin:miter;stroke-opacity:1"
       xml:space="preserve"><tspan
         style="font-style:normal;font-variant:normal;font-weight:bold;font-stretch:normal;font-size:62.5px;font-family:FreeMono;-inkscape-font-specification:'FreeMono Bold';fill:#00ff00"
         y="473.05377"
         x="331.83578"
         id="tspan4774">A</tspan></text>
    <text
       id="text4776"
       y="425.0137"
       x="381.64731"
       style="font-style:normal;font-weight:normal;font-size:62.5px;line-height:200%;font-family:sans-serif;letter-spacing:0px;word-spacing:0px;fill:#000000;fill-opacity:1;stroke:none;stroke-width:1px;stroke-linecap:butt;stroke-linejoin:miter;stroke-opacity:1"
       xml:space="preserve"><tspan
         style="font-style:normal;font-variant:normal;font-weight:bold;font-stretch:normal;font-family:FreeMono;-inkscape-font-specification:'FreeMono Bold';fill:#ff0000"
         y="425.0137"
         x="381.64731"
         id="tspan4778">B</tspan></text>
  </g>
  <path
     style="opacity:1;fill:#1a1a1a;fill-opacity:1;stroke:none;stroke-width:1.1478101;stroke-miterlimit:4;stroke-dasharray:none;stroke-opacity:1"
     d="m 1.8561828,59.028175 c -1.45240063,-0.579151 -2.07414803,-1.949866 -1.57309519,-3.46807 0.20955262,-0.634951 0.48627457,-0.921716 1.20386459,-1.247562 0.5124719,-0.232704 1.1596413,-0.425322 1.4381541,-0.428041 l 0.5063868,-0.005 0,-10.809983 c 0,-10.096966 -0.025978,-10.818331 -0.3938564,-10.936546 -1.8262881,-0.586865 -2.29835529,-1.06861 -2.34827268,-2.396417 -0.0429174,-1.141606 0.44524708,-2.150445 1.25466928,-2.592896 0.5648176,-0.308744 1.4375055,-0.39499 4.5257809,-0.447278 l 3.8260338,-0.06478 3.826034,8.351788 c 2.104319,4.593482 3.878707,8.386466 3.943085,8.428853 0.06438,0.04239 1.836733,-3.721964 3.938565,-8.365222 l 3.821513,-8.442288 3.826034,0.08346 c 4.047282,0.08829 4.977782,0.3074 5.507319,1.296847 0.308113,0.575714 0.294757,2.103568 -0.02451,2.80429 -0.256646,0.563277 -1.40882,1.259271 -2.084641,1.259271 -0.324804,0 -0.359843,1.062873 -0.359843,10.915449 0,10.728217 0.0077,10.91545 0.445566,10.91545 1.016341,0 2.217578,0.704193 2.621297,1.536659 0.329367,0.679155 0.4167,0.746243 0.48993,0.376358 0.227458,-1.148893 1.655669,-1.909227 3.591048,-1.911761 l 0.958671,-0.0013 -0.05843,-10.859185 -0.05842,-10.859185 -1.462896,-0.126304 c -0.825309,-0.07126 -1.727688,-0.299994 -2.070442,-0.524821 -1.170519,-0.767794 -1.354722,-2.973786 -0.327491,-3.921989 0.95835,-0.88462 1.826207,-0.938321 15.185349,-0.93962 l 12.899946,-0.0013 -0.07148,5.160503 c -0.06684,4.825856 -0.102063,5.201669 -0.543097,5.795316 -1.020248,1.373286 -3.212072,1.37516 -4.230009,0.0036 -0.391725,-0.527799 -0.482276,-1.034732 -0.552781,-3.094587 l -0.08432,-2.463389 -6.614395,0 -6.614398,0 0,4.171239 0,4.171239 2.419403,-0.06388 2.419404,-0.06388 0.13374,-1.243394 c 0.167194,-1.554411 0.476657,-2.141796 1.372455,-2.605032 0.780574,-0.40365 2.216766,-0.32419 2.793628,0.154563 0.991893,0.8232 1.101637,1.460217 1.101637,6.394592 0,4.087281 -0.05356,4.824268 -0.396186,5.451053 -0.506333,0.92628 -1.146174,1.261736 -2.371277,1.243215 -1.550673,-0.02344 -2.521466,-1.25494 -2.521466,-3.198596 l 0,-0.907472 -2.475669,0 -2.475669,0 0,4.166742 0,4.166745 7.258211,-0.05939 7.258212,-0.05938 0.11253,-2.486296 c 0.131609,-2.907812 0.418498,-3.540474 1.792103,-3.952016 1.221794,-0.366058 2.409573,0.08581 3.036642,1.155237 0.416203,0.709808 0.465966,1.243326 0.540002,5.789462 l 0.08155,5.007603 -13.872888,0 c -14.67034,0 -14.793727,-0.0082 -15.69195,-1.037976 -0.203842,-0.233705 -0.410652,-0.627474 -0.459581,-0.875041 -0.07831,-0.396233 -0.128241,-0.371713 -0.417089,0.204821 -0.180474,0.360217 -0.613772,0.866604 -0.962884,1.125304 -0.590139,0.437305 -0.977674,0.475277 -5.513991,0.540288 -2.683582,0.03846 -5.205409,0.0091 -5.604061,-0.06522 -1.703126,-0.317557 -2.63877,-1.938159 -2.085993,-3.613091 0.374807,-1.135675 1.573806,-1.668956 3.767323,-1.675602 l 1.631691,-0.005 -0.01589,-8.270986 c -0.01587,-8.253753 -0.01677,-8.269026 -0.434032,-7.330631 -0.229974,0.517195 -1.653446,3.735949 -3.163271,7.152787 l -2.745135,6.212434 -2.489225,-0.06337 -2.489224,-0.06337 -3.331405,-7.089416 -3.3314047,-7.089416 -0.00264,8.270985 -0.00264,8.270986 1.6316907,0.005 c 2.193517,0.0066 3.392516,0.539927 3.767323,1.675602 0.511831,1.550863 -0.12848,2.906688 -1.643896,3.480863 -0.807433,0.305927 -10.185115,0.294978 -10.9569485,-0.01278 l -8.8e-6,9.4e-5 z"
     id="path4246" />
  <path
     style="opacity:1;fill:#1a1a1a;fill-opacity:1;stroke:none;stroke-width:1.1478101;stroke-miterlimit:4;stroke-dasharray:none;stroke-opacity:1"
     d="m 77.997049,59.032895 c -1.060333,-0.306781 -1.645851,-1.179303 -1.645851,-2.452605 0,-2.105185 1.07388,-2.697397 4.895073,-2.699474 l 2.306874,-0.0014 0,-10.91545 0,-10.91545 -3.038321,0 -3.038321,0 0,2.93866 c 0,3.516638 -0.259678,4.738208 -1.170081,5.504262 -1.223368,1.029396 -3.119431,0.637064 -3.837173,-0.793985 -0.345784,-0.689432 -0.393549,-1.528347 -0.393856,-6.917489 l -3.49e-4,-6.132908 14.419772,0 14.419774,0 -0.0722,6.245438 c -0.0635,5.5 -0.12044,6.333896 -0.47678,6.986554 -0.881185,1.613948 -3.560572,1.601286 -4.488694,-0.02121 -0.179468,-0.313734 -0.324254,-1.812778 -0.395598,-4.095817 l -0.11253,-3.600973 -3.150851,0 -3.150851,0 -0.05843,10.859184 -0.05843,10.859186 2.421565,0.0014 c 3.943541,0.002 5.009764,0.57657 5.009764,2.699474 0,1.316547 -0.587519,2.142563 -1.754459,2.466662 -1.042298,0.289482 -15.623572,0.277156 -16.630102,-0.01407 l -10e-7,9e-6 z"
     id="path4248" />
  <path
     style="opacity:1;fill:#1a1a1a;fill-opacity:1;stroke:none;stroke-width:1.1478101;stroke-miterlimit:4;stroke-dasharray:none;stroke-opacity:1"
     d="m 105.49199,58.860097 c -1.37651,-0.625311 -1.86552,-2.189893 -1.12937,-3.613452 0.40132,-0.776062 1.76922,-1.367085 3.16406,-1.367085 l 1.00822,0 0,-10.889231 0,-10.889231 -1.46048,-0.093 c -1.76434,-0.112345 -2.60946,-0.645759 -2.91164,-1.83776 -0.32416,-1.278704 0.0538,-2.39766 0.9962,-2.949425 0.75614,-0.442698 1.12605,-0.461165 9.2275,-0.460682 7.47967,4.45e-4 8.60415,0.04708 9.88468,0.409934 3.37449,0.956207 6.00911,2.947487 7.25905,5.486487 0.98987,2.010707 1.15415,4.693337 0.40854,6.671298 -0.66737,1.770404 -2.04092,3.393821 -3.98823,4.713725 l -1.61364,1.093738 0.81662,0.714833 c 1.11647,0.97732 3.85825,4.296881 5.23892,6.342954 1.07382,1.591333 1.18511,1.686426 1.97506,1.687612 1.30831,0.002 2.46218,0.410441 2.96496,1.049621 0.62892,0.799535 0.62892,2.500171 0,3.299706 -0.63833,0.811511 -1.70647,1.048165 -4.7375,1.049621 l -2.60966,0.0014 -1.19555,-1.969282 c -2.30167,-3.791287 -6.04011,-8.37774 -7.96571,-9.77264 -0.85985,-0.622869 -0.94255,-0.636423 -3.88311,-0.636423 l -3.00455,0 0,3.488443 0,3.488443 1.51916,0.0014 c 2.98652,0.0025 4.10736,0.739111 4.10736,2.699474 0,1.316547 -0.58752,2.142563 -1.75446,2.466662 -0.46461,0.129036 -3.17537,0.229924 -6.12267,0.22787 -4.63591,-0.0032 -5.40065,-0.05444 -6.19376,-0.414725 l 0,-1.89e-4 z m 14.18342,-17.569542 c 3.59093,-0.35184 5.97793,-1.670179 6.76752,-3.737695 0.51377,-1.345289 0.17095,-2.58347 -1.03333,-3.732046 -1.40636,-1.341325 -2.45163,-1.588478 -7.25335,-1.715067 l -4.21989,-0.11125 0,4.603319 c 0,2.531825 0.0675,4.670836 0.15004,4.753358 0.20883,0.208831 3.16636,0.176753 5.58901,-0.06062 z"
     id="path4250" />
  <path
     style="opacity:1;fill:#4d4d4d;fill-opacity:1;stroke:#4d4d4d;stroke-width:1.1478101;stroke-miterlimit:4;stroke-dasharray:none;stroke-opacity:1"
     d="m 163.92211,72.773974 c -3.56625,-0.447369 -8.06455,-1.941026 -11.15396,-3.703662 -7.59613,-4.33391 -12.94556,-11.823052 -14.67957,-20.551201 -0.53012,-2.668353 -0.53012,-8.216588 0,-10.884941 1.17946,-5.93685 3.82167,-11.002086 7.97988,-15.297783 4.36472,-4.509042 9.75763,-7.433843 15.9899,-8.671999 2.66835,-0.530118 8.21659,-0.530118 10.88494,0 12.33566,2.450706 21.52418,11.714336 23.95589,24.151681 0.83239,4.25741 0.45897,9.82934 -0.95973,14.320303 -2.86064,9.055538 -10.31885,16.516831 -19.36718,19.375198 -3.85661,1.218303 -8.94992,1.726583 -12.65017,1.262404 z m 6.68279,-11.366872 c 3.14137,-0.633054 6.07437,-2.274602 8.54606,-4.78306 2.44163,-2.477956 3.91188,-4.957354 4.92286,-8.301803 0.53282,-1.762645 0.60109,-2.368635 0.61625,-5.470659 0.0208,-4.258045 -0.43581,-6.386735 -2.10583,-9.816843 -1.73025,-3.553847 -3.9183,-5.647245 -8.07736,-7.72796 -6.77958,-3.391717 -14.25698,-2.029717 -19.40928,3.535377 -2.30526,2.489954 -3.85975,5.299513 -4.75106,8.586948 -0.68569,2.529053 -0.67922,7.475116 0.0134,10.261286 1.44872,5.827497 5.58261,10.801575 10.70784,12.884142 2.84503,1.15604 6.3944,1.465895 9.53709,0.832572 z"
     id="path4252" />
  <path
     style="opacity:1;fill:#4d4d4d;fill-opacity:1;stroke:#4d4d4d;stroke-width:1.1478101;stroke-miterlimit:4;stroke-dasharray:none;stroke-opacity:1"
     d="m 164.23451,54.837437 c -3.73796,-1.333454 -6.79329,-4.928456 -7.65855,-9.011325 -0.68424,-3.228666 -0.28942,-6.683108 1.08456,-9.489393 0.9735,-1.988312 3.66438,-4.736615 5.42836,-5.544193 5.72091,-2.619118 12.15099,0.550059 14.47558,7.134534 0.77546,2.196521 0.97058,5.912451 0.42425,8.079652 -0.9054,3.591627 -3.35652,6.765639 -6.37789,8.258879 -1.58084,0.781294 -1.8723,0.84789 -3.97696,0.908703 -1.73969,0.05027 -2.53511,-0.02855 -3.39935,-0.336857 z"
     id="path4254" />
  <path
     style="opacity:1;fill:#4d4d4d;fill-opacity:1;stroke:#4d4d4d;stroke-width:1.1478101;stroke-miterlimit:4;stroke-dasharray:none;stroke-opacity:1"
     d=""
     id="path4256" />
  <path
     style="opacity:1;fill:#1a1a1a;fill-opacity:1;stroke:none;stroke-width:1.1478101;stroke-miterlimit:4;stroke-dasharray:none;stroke-opacity:1"
     d="m 234.53612,58.800089 c -1.15221,-0.319993 -1.79722,-1.091297 -1.93502,-2.313908 -0.1915,-1.698926 0.99188,-2.831682 2.95823,-2.831682 0.6073,0 0.81477,-0.110241 0.93797,-0.498419 0.087,-0.274134 2.0181,-5.087405 4.29132,-10.696162 2.27322,-5.608757 4.13313,-10.29642 4.13313,-10.417029 0,-0.127265 -0.92085,-0.219816 -2.19434,-0.220544 -2.71001,-0.0016 -3.68191,-0.258271 -4.4547,-1.176674 -0.52214,-0.620534 -0.58713,-0.862422 -0.49349,-1.836925 0.13141,-1.367585 0.82258,-2.066985 2.24324,-2.269966 0.5284,-0.0755 3.77922,-0.107306 7.22404,-0.07069 l 6.26332,0.06658 5.56582,13.503649 5.56583,13.503649 0.99932,0.122856 c 0.54963,0.06757 1.21813,0.243511 1.48554,0.390978 0.3878,0.213853 0.61556,0.200655 1.1253,-0.0652 0.35151,-0.18333 0.96825,-0.333949 1.37055,-0.334712 l 0.73144,-0.0014 0,-10.890402 0,-10.890403 -0.78682,-0.147609 c -1.77973,-0.333879 -2.67907,-2.24049 -1.81429,-3.846298 0.66385,-1.232699 1.11959,-1.345116 5.45301,-1.345116 l 3.91103,0 3.78643,8.174227 c 2.08253,4.495825 3.87771,8.178995 3.98928,8.184821 0.11157,0.0058 1.87392,-3.695196 3.91635,-8.224494 l 3.7135,-8.235088 3.66447,-0.006 c 3.85371,-0.0063 4.71414,0.15908 5.51638,1.06033 0.60944,0.684649 0.72401,1.887294 0.27078,2.842398 -0.30717,0.647327 -0.61638,0.898388 -1.48753,1.207791 l -1.09974,0.390595 0,10.862623 0,10.862624 0.73145,0.0033 c 0.9883,0.0045 1.74655,0.422421 2.32578,1.281935 l 0.48254,0.716042 0.25107,-0.551041 c 0.41036,-0.900628 1.55078,-1.44846 3.01725,-1.449412 l 1.2941,-9e-4 0,-10.91545 0,-10.91545 -1.06904,-0.0049 c -1.24772,-0.0058 -2.84079,-0.660935 -3.18896,-1.311493 -0.13377,-0.249953 -0.24322,-0.903207 -0.24322,-1.451678 0,-1.245104 0.61195,-2.081965 1.75446,-2.399278 0.52689,-0.146334 5.6173,-0.23202 13.831,-0.232813 l 12.99727,-0.0013 0,4.962515 c 0,5.306333 -0.0985,5.861054 -1.1741,6.614455 -0.27581,0.19319 -0.9331,0.351254 -1.46063,0.351254 -1.92789,0 -2.76673,-1.544623 -2.76673,-5.094587 l 0,-1.432177 -6.6393,0 -6.63929,0 0,4.051095 0,4.051094 2.47567,0 2.47567,0 0.001,-0.618917 c 0.002,-1.041118 0.45785,-2.336315 1.0198,-2.898271 0.40746,-0.407455 0.7797,-0.533906 1.57171,-0.533906 1.36902,0 1.85961,0.294583 2.37276,1.424788 0.37137,0.817938 0.42605,1.501519 0.42605,5.327036 0,3.825517 -0.0547,4.509098 -0.42605,5.327036 -0.48927,1.077608 -1.00753,1.424789 -2.12688,1.424789 -1.70898,0 -2.52394,-0.864514 -2.7695,-2.937891 l -0.13185,-1.113204 -2.44432,0 -2.44432,0 0,4.163626 0,4.163625 7.31448,0 7.31448,0 0,-2.133523 c 0,-2.519889 0.40547,-3.792086 1.36708,-4.289357 1.30831,-0.676553 2.90369,-0.273106 3.54487,0.89644 0.31457,0.573793 0.38882,1.536622 0.44853,5.815868 l 0.0716,5.128236 -14.02533,-0.06437 c -15.5155,-0.07121 -15.09333,-0.03056 -15.70703,-1.512168 l -0.28221,-0.681315 -0.48934,0.726967 c -0.88994,1.322099 -1.28311,1.402149 -6.88677,1.402149 -5.43755,0 -6.18815,-0.124871 -6.85338,-1.140145 -0.40146,-0.612698 -0.46271,-2.389668 -0.10539,-3.057329 0.38619,-0.721597 1.59785,-1.091455 3.57563,-1.091455 l 1.80771,0 0,-8.228003 c 0,-4.525401 -0.0784,-8.179531 -0.17428,-8.120289 -0.0959,0.05924 -1.53906,3.207739 -3.20712,6.996658 l -3.03283,6.888944 -2.56006,-0.06276 -2.56006,-0.06275 -3.20795,-6.818298 c -1.76438,-3.750064 -3.27088,-6.881222 -3.34779,-6.95813 -0.0769,-0.07691 -0.13983,3.573671 -0.13983,8.112397 l 0,8.252231 1.79285,0 c 2.85241,0 3.83367,0.699748 3.83367,2.733825 0,1.358041 -1.05675,2.345381 -2.73465,2.555021 -2.10624,0.263157 -9.67988,0.03769 -10.28955,-0.306313 -0.45371,-0.256002 -0.71308,-0.244389 -1.7374,0.0778 -1.01316,0.31868 -1.99909,0.366825 -6.21849,0.303661 -4.46137,-0.06678 -5.093,-0.122606 -5.72671,-0.506116 -0.83202,-0.503529 -1.20074,-1.200488 -1.20074,-2.269678 0,-1.795798 1.075,-2.588199 3.51124,-2.588199 1.66954,0 1.61875,0.168712 0.65928,-2.190004 l -0.52818,-1.298439 -6.74727,-0.05953 -6.74727,-0.05953 -0.61303,1.522422 c -0.33716,0.837334 -0.66319,1.64902 -0.7245,1.80375 -0.0824,0.20805 0.27875,0.281326 1.38668,0.281326 2.42056,0 3.50547,0.83611 3.49634,2.694543 -0.005,1.097189 -0.40162,1.770666 -1.34536,2.286719 -0.69814,0.381755 -10.01453,0.517408 -11.28587,0.164328 l -1e-4,3.1e-5 z m 20.22333,-14.429349 c -2.65218,-6.594764 -4.30459,-10.521593 -4.42748,-10.521593 -0.11562,0 -3.2208,7.34288 -4.4494,10.521593 -0.0848,0.219369 0.89319,0.281326 4.44064,0.281326 3.5498,0 4.52452,-0.06181 4.43624,-0.281326 z"
     id="path4258" />
  <path
     style="opacity:1;fill:#1a1a1a;fill-opacity:1;stroke:none;stroke-width:1.1478101;stroke-miterlimit:4;stroke-dasharray:none;stroke-opacity:1"
     d="m 213.37598,59.378577 c -4.90185,-0.886981 -8.27942,-3.183758 -10.24383,-6.9659 -1.49316,-2.874828 -1.72268,-4.06407 -1.73665,-8.998445 -0.0128,-4.530301 0.17868,-5.961077 1.10515,-8.256471 1.10351,-2.73405 3.65483,-5.734932 6.17986,-7.26881 4.2205,-2.563816 10.45973,-2.957339 15.48665,-0.97678 l 1.18884,0.468391 0.72552,-0.839308 c 0.59001,-0.682538 0.8786,-0.839308 1.54503,-0.839308 2.28565,0 2.55372,0.58353 2.55372,5.559002 0,4.241454 -0.188,5.083627 -1.25836,5.637134 -1.13386,0.58634 -2.59692,0.340643 -3.29751,-0.553763 -0.15384,-0.196402 -0.43746,-0.881623 -0.63025,-1.522714 -0.74399,-2.47393 -3.1968,-3.673188 -7.51268,-3.673188 -4.27713,0 -7.03011,1.272037 -9.02355,4.169416 -1.28972,1.874537 -1.57145,3.260005 -1.57145,7.728001 0,3.414024 0.07,4.261198 0.45532,5.508641 0.56281,1.822151 2.16054,3.679868 3.89451,4.528221 3.19581,1.563561 8.88677,1.656486 12.68199,0.207079 l 0.97305,-0.371612 0,-1.99497 0,-1.994971 -3.20712,-0.0013 c -4.70932,-0.0018 -5.96869,-0.508876 -6.16436,-2.48184 -0.12509,-1.261276 0.25405,-2.013393 1.27242,-2.524158 0.69153,-0.346837 1.53949,-0.393548 7.14978,-0.393856 4.93513,-2.7e-4 6.53394,0.07015 7.11627,0.313467 2.06671,0.863526 2.00177,3.668176 -0.11022,4.760328 l -0.65531,0.338874 0,3.718027 0,3.718029 -1.85675,0.853217 c -2.24476,1.031517 -4.98499,1.945417 -6.79316,2.265609 -1.82721,0.323561 -6.17458,0.262513 -8.26691,-0.116087 l 0,9.5e-5 z"
     id="path4260" />
  <path
     style="opacity:1;fill:#4d4d4d;fill-opacity:1;stroke:#4d4d4d;stroke-width:1.1478101;stroke-miterlimit:4;stroke-dasharray:none;stroke-opacity:1"
     d="m 210.59998,122.21 c -12.06438,-2.00325 -21.40496,-10.56245 -24.46462,-22.418033 -0.89264,-3.458827 -1.10825,-8.213874 -0.53151,-11.722218 0.70628,-4.296304 2.46584,-8.708744 4.92784,-12.357502 1.39939,-2.073942 4.68156,-5.502097 6.66498,-6.961433 12.10731,-8.908166 28.49941,-7.728431 39.04498,2.810056 3.29957,3.297351 6.04549,7.80285 7.39838,12.139249 1.8834,6.036808 1.67291,13.771536 -0.52978,19.467761 -3.7151,9.60738 -11.90375,16.58578 -22.04495,18.78679 -2.3029,0.49982 -8.13589,0.64213 -10.46532,0.25533 z m 14.62895,-12.62888 c 6.05844,-1.27198 9.72292,-6.43584 8.35534,-11.774048 -0.64453,-2.515813 -2.21428,-4.504007 -4.88923,-6.192503 l -1.26016,-0.79545 1.18307,-1.251084 c 1.35549,-1.43341 2.02297,-2.680119 2.40175,-4.48598 0.35614,-1.697902 -0.0423,-4.029931 -0.99356,-5.814602 -1.34957,-2.532051 -4.69491,-4.919939 -7.79034,-5.560716 -1.71487,-0.354989 -20.59976,-0.313829 -21.62995,0.04714 -1.14871,0.402501 -1.70904,1.302245 -1.70904,2.744292 0,2.068774 1.11602,3.051907 3.65724,3.221787 l 1.40663,0.09403 0,11.902006 0,11.902008 -1.22318,0 c -1.46716,0 -2.28155,0.2796 -3.10644,1.06651 -1.52967,1.45927 -0.76001,4.38016 1.31815,5.00239 0.35658,0.10676 5.61093,0.20106 11.67631,0.20955 8.88263,0.0125 11.33446,-0.0489 12.60341,-0.31534 z"
     id="path4262" />
  <path
     style="opacity:1;fill:#4d4d4d;fill-opacity:1;stroke:#4d4d4d;stroke-width:1.1478101;stroke-miterlimit:4;stroke-dasharray:none;stroke-opacity:1"
     d="m 210.26239,84.03771 0,-4.276156 4.79152,0 c 3.59777,0 5.12571,0.08681 6.13291,0.348439 2.44422,0.634913 3.47946,1.720242 3.47946,3.647833 0,1.382782 -0.60948,2.363915 -2.08414,3.355035 -1.50387,1.010752 -2.74417,1.201004 -7.82962,1.201004 l -4.49013,0 0,-4.276155 z"
     id="path4264" />
  <path
     style="opacity:1;fill:#4d4d4d;fill-opacity:1;stroke:#4d4d4d;stroke-width:1.1478101;stroke-miterlimit:4;stroke-dasharray:none;stroke-opacity:1"
     d="m 210.26239,99.209448 0,-4.408553 5.68278,0.09436 c 4.61157,0.07657 5.91612,0.168911 6.92062,0.489852 2.88158,0.920674 4.50122,2.637171 4.50122,4.770413 0,1.32761 -0.38725,1.95608 -1.58037,2.56476 -1.36294,0.69532 -3.46638,0.88845 -9.72894,0.89326 l -5.79531,0.004 0,-4.408552 z"
     id="path4266" />
  <path
     style="opacity:1;fill:#4d4d4d;fill-opacity:1;stroke:#4d4d4d;stroke-width:1.1478101;stroke-miterlimit:4;stroke-dasharray:none;stroke-opacity:1"
     d="m 162.77455,171.48027 c -8.68641,-1.4667 -16.11195,-6.41942 -20.68912,-13.79933 -5.30457,-8.55274 -5.92331,-19.05137 -1.67253,-28.37911 2.62007,-5.74936 7.90081,-11.14837 13.7733,-14.08178 2.21172,-1.10479 5.77622,-2.27586 8.22398,-2.70187 2.58946,-0.45068 7.53198,-0.44934 10.15452,0.003 2.37191,0.40888 6.13384,1.64106 8.22842,2.69513 5.39872,2.71685 10.31586,7.49503 12.97075,12.6042 3.38992,6.52371 4.36375,13.04587 2.97906,19.95208 -2.46395,12.28905 -12.06075,21.56437 -24.49922,23.67852 -2.50721,0.42614 -7.03625,0.44022 -9.46916,0.0294 z m -0.85715,-13.92333 c 1.15095,-0.5725 1.62318,-1.37387 1.62625,-2.75977 0.005,-2.08413 -1.05672,-2.97049 -3.80582,-3.1784 l -1.63392,-0.12358 0.67633,-1.66057 0.67633,-1.66057 7.42352,0.0593 7.42351,0.0593 0.62542,1.57543 0.62542,1.57543 -1.65231,0.15714 c -2.72997,0.25963 -3.79038,1.12191 -3.78342,3.07652 0.005,1.37594 0.54463,2.34852 1.5921,2.8689 0.77297,0.384 1.4297,0.4242 6.93053,0.4242 5.3363,0 6.16334,-0.0474 6.78822,-0.38936 1.19336,-0.65298 1.65156,-1.42846 1.65156,-2.79515 0,-1.05372 -0.0949,-1.31339 -0.73145,-2.00177 -0.59396,-0.64231 -0.99201,-0.83881 -2.11767,-1.0454 l -1.38624,-0.25442 -6.1698,-14.98688 -6.16981,-14.98687 -7.86063,0 c -8.69185,0 -8.92261,0.0348 -9.6573,1.45552 -0.46868,0.90633 -0.42978,2.44788 0.083,3.28877 0.67175,1.1016 1.70371,1.4496 4.75327,1.60293 1.48471,0.0746 2.69946,0.20682 2.69946,0.29371 0,0.0869 -2.10627,5.35998 -4.6806,11.71797 l -4.6806,11.56 -1.30664,0.26175 c -1.64889,0.3303 -2.41875,0.89724 -2.79408,2.05758 -0.59489,1.83914 0.41834,3.6476 2.28876,4.08507 0.51309,0.12001 3.36355,0.19983 6.33436,0.17737 4.73682,-0.0358 5.50368,-0.0917 6.23226,-0.45407 z"
     id="path4268" />
  <path
     style="opacity:1;fill:#4d4d4d;fill-opacity:1;stroke:#4d4d4d;stroke-width:1.1478101;stroke-miterlimit:4;stroke-dasharray:none;stroke-opacity:1"
     d="m 116.63708,122.51255 c -3.82354,-0.47376 -8.32462,-2.01779 -11.66198,-4.00047 -7.214281,-4.28593 -12.301642,-11.42911 -14.133861,-19.845417 -0.581419,-2.670747 -0.587178,-9.007443 -0.01059,-11.650989 2.622371,-12.023077 11.516151,-20.955953 23.390711,-23.493545 3.07382,-0.656876 8.58489,-0.712442 11.41816,-0.115124 12.0714,2.544927 20.85439,11.022824 23.66067,22.838803 2.30978,9.725387 -0.7931,20.420682 -8.01083,27.612462 -4.3233,4.30776 -9.34668,7.02194 -15.20612,8.21602 -2.61684,0.53328 -7.02765,0.73792 -9.44616,0.43826 z m 19.5803,-19.7471 c 0,-6.738258 -0.014,-6.956873 -0.50639,-7.933398 -0.39989,-0.793009 -0.69795,-1.070428 -1.41727,-1.319129 -1.76402,-0.609899 -3.68327,0.298107 -4.14515,1.96109 -0.12671,0.45623 -0.23095,2.373991 -0.23164,4.261689 l -0.001,3.432178 -6.6393,0 -6.63929,0 0,-11.815694 0,-11.815693 2.19434,-0.0013 c 2.60996,-0.0015 3.65851,-0.255253 4.62575,-1.119478 0.66901,-0.597762 0.71945,-0.74503 0.71945,-2.100558 0,-1.595312 -0.29164,-2.117906 -1.5749,-2.822127 -0.59408,-0.326019 -1.70886,-0.370815 -9.22802,-0.370815 -9.2121,0 -9.23501,0.0027 -10.32988,1.212513 -0.61136,0.675543 -0.7158,2.411366 -0.20418,3.393578 0.68778,1.320412 1.57468,1.660538 4.61237,1.768843 l 2.65831,0.09478 0,11.756562 0,11.756559 -2.53194,0.11937 c -3.64514,0.17186 -4.74944,0.73162 -5.02142,2.54532 -0.2682,1.78846 0.569,3.21283 2.1519,3.66116 0.48232,0.13661 6.74272,0.23097 16.14811,0.2434 l 15.3604,0.0203 0,-6.9292 10e-5,1e-5 z"
     id="path4270" />
  <path
     style="opacity:1;fill:#1a1a1a;fill-opacity:1;stroke:none;stroke-width:1.1478101;stroke-miterlimit:4;stroke-dasharray:none;stroke-opacity:1"
     d="m 162.16292,141.37195 c 0.62647,-1.57768 4.5075,-10.90262 4.59985,-11.05206 0.0983,-0.15901 2.19269,4.77196 4.40754,10.37688 l 0.37797,0.95651 -4.74853,0 c -3.70837,0 -4.72407,-0.0616 -4.63683,-0.28133 z"
     id="path4272" />
  <path
     style="opacity:1;fill:#1a1a1a;fill-opacity:1;stroke:none;stroke-width:1.1478101;stroke-miterlimit:4;stroke-dasharray:none;stroke-opacity:1"
     d="m 163.19373,172.03531 c -12.98583,-2.06095 -22.99166,-11.64662 -25.5564,-24.48323 -0.58344,-2.92017 -0.53023,-8.67145 0.10709,-11.57341 1.37453,-6.25878 4.01216,-11.09643 8.40689,-15.41893 4.13705,-4.06907 7.77109,-6.20147 13.29667,-7.8023 2.94858,-0.85424 5.4433,-1.11255 9.40321,-0.97362 3.97524,0.13946 6.18029,0.61004 10.17244,2.17089 6.10343,2.38633 12.28462,8.0442 15.34882,14.04937 2.3653,4.63545 3.35391,8.6845 3.36006,13.76173 0.01,8.11511 -2.88779,15.41334 -8.38495,21.11923 -4.38388,4.55035 -9.72725,7.50969 -15.94115,8.82877 -2.02345,0.42954 -8.28912,0.62678 -10.21268,0.3215 z m -2.06443,-14.75861 c 1.08787,-0.16598 1.87031,-1.22736 1.87031,-2.53708 0,-1.87246 -0.74836,-2.3883 -3.89594,-2.68543 l -1.70169,-0.16064 0.84572,-2.02555 0.84571,-2.02555 7.77137,-0.0591 7.77137,-0.0591 0.73342,1.89707 c 0.40337,1.04338 0.66558,2.00681 0.58268,2.14096 -0.0829,0.13414 -0.54488,0.24389 -1.02662,0.24389 -1.4744,0 -3.19003,0.47104 -3.74806,1.02907 -0.81047,0.81047 -0.74631,2.54305 0.13053,3.52486 l 0.65642,0.735 6.37673,0.061 c 6.06401,0.058 6.41288,0.0387 7.11379,-0.39396 1.59658,-0.98548 1.58679,-3.45302 -0.0171,-4.31957 -0.27216,-0.14704 -1.04842,-0.37916 -1.72501,-0.51581 l -1.23016,-0.24846 -6.1149,-14.84634 -6.11491,-14.84633 -7.98101,0 c -8.83643,0 -8.52261,-0.052 -8.98449,1.48959 -0.37579,1.25429 0.0429,2.55036 0.98039,3.03518 0.39441,0.20396 1.75013,0.46008 3.08594,0.58299 3.08482,0.28385 3.31968,0.33474 3.48062,0.75415 0.12375,0.32248 -8.85468,23.05978 -9.33853,23.64924 -0.11433,0.13928 -0.62998,0.32073 -1.14588,0.40323 -2.09223,0.33456 -2.87953,1.11078 -2.87953,2.83901 0,0.66104 0.16679,1.07278 0.65669,1.6211 0.64105,0.7175 0.71205,0.73826 2.98205,0.87202 2.37806,0.14012 8.72892,0.0417 10.02014,-0.15533 z"
     id="path4274" />
  <path
     style="opacity:1;fill:#1a1a1a;fill-opacity:1;stroke:none;stroke-width:1.1478101;stroke-miterlimit:4;stroke-dasharray:none;stroke-opacity:1"
     d="m 211.95034,122.84558 c -8.01205,-1.09548 -14.86512,-4.65342 -19.59551,-10.1735 -7.05801,-8.23627 -9.342,-19.297592 -6.0437,-29.269572 1.62074,-4.900106 3.85068,-8.517702 7.52162,-12.202188 5.75853,-5.779796 13.0776,-8.816121 21.26844,-8.823245 12.66005,-0.01101 23.63939,7.586771 28.44498,19.684131 1.62514,4.091051 2.23378,10.266392 1.50354,15.255092 -1.63065,11.139982 -9.64313,20.511532 -20.68697,24.195872 -1.25656,0.4192 -2.94296,0.86742 -3.74756,0.99604 -1.58806,0.25387 -7.57165,0.48685 -8.66484,0.33737 z m 13.60992,-13.81678 c 5.16555,-1.32992 8.54451,-5.92104 7.66772,-10.418402 -0.54983,-2.820291 -2.19397,-4.979635 -5.20805,-6.840028 l -1.31519,-0.811781 1.26073,-1.378626 c 0.6934,-0.758246 1.57443,-2.036931 1.95786,-2.841523 0.59822,-1.255342 0.69408,-1.702378 0.67565,-3.150852 -0.0401,-3.148598 -1.46132,-5.614311 -4.33872,-7.527199 -2.8443,-1.89089 -3.22434,-1.963731 -10.93401,-2.095697 -3.7135,-0.06356 -8.56566,-0.03968 -10.78257,0.05307 -3.81271,0.159522 -4.05924,0.197137 -4.55748,0.695378 -0.41486,0.414865 -0.52673,0.771044 -0.52673,1.677064 0,0.632681 0.10428,1.345178 0.23173,1.583326 0.36662,0.685037 1.47481,1.131151 3.16106,1.27252 l 1.55854,0.130663 0,12.316106 0,12.316111 -1.67456,0.10747 c -1.94208,0.12463 -2.71417,0.52778 -3.1895,1.66541 -0.24939,0.59689 -0.27148,0.97815 -0.0947,1.63471 0.4071,1.51186 0.81034,1.6976 4.02479,1.8539 4.70572,0.2288 20.94643,0.0511 22.08341,-0.24162 z"
     id="path4276" />
  <path
     style="opacity:1;fill:#1a1a1a;fill-opacity:1;stroke:none;stroke-width:1.1478101;stroke-miterlimit:4;stroke-dasharray:none;stroke-opacity:1"
     d="m 117.08721,123.05731 c -13.06686,-1.65179 -23.217481,-10.6293 -26.466983,-23.40818 -0.577076,-2.269392 -0.621026,-2.761177 -0.610746,-6.834048 0.0081,-3.206572 0.110286,-4.833501 0.379397,-6.040099 1.930138,-8.654035 7.296408,-15.996054 14.882632,-20.36211 4.88939,-2.813961 11.36361,-4.275363 17.09884,-3.85966 7.17044,0.519731 14.09037,3.708805 19.25557,8.874008 8.06404,8.064039 10.90565,20.01972 7.31145,30.761939 -2.10906,6.30349 -5.95875,11.52199 -11.35752,15.39583 -3.42283,2.45602 -7.83798,4.31149 -11.97086,5.03074 -2.01273,0.35028 -7.14161,0.61605 -8.52178,0.44158 z m 18.67467,-20.05823 c -0.003,-3.434987 -0.0972,-6.641174 -0.20935,-7.124855 -0.30175,-1.300937 -1.11387,-2.008859 -2.30454,-2.008859 -1.15245,0 -1.84278,0.328578 -2.36508,1.125709 -0.31406,0.479308 -0.40024,1.309697 -0.47804,4.605827 l -0.0949,4.021098 -7.0615,0 -7.0615,0 0,-12.265814 0,-12.265814 2.08182,-0.0098 c 2.5399,-0.01196 3.85505,-0.248073 4.63809,-0.832697 0.54169,-0.404428 0.59457,-0.581084 0.59457,-1.986085 0,-1.508056 -0.0172,-1.553786 -0.77903,-2.06716 l -0.77903,-0.524988 -8.83745,0.0659 -8.83745,0.0659 -0.6108,0.611048 c -0.49513,0.495328 -0.61037,0.814991 -0.60851,1.687956 0.005,2.226146 0.8729,2.750305 4.85948,2.93398 l 2.65179,0.122176 0,12.232699 0,12.232699 -1.40663,0.007 c -2.27278,0.0112 -4.73126,0.4046 -5.33526,0.85367 -1.14158,0.84878 -1.04879,3.24349 0.15635,4.03505 0.7973,0.52368 3.81136,0.62994 19.47027,0.68641 l 12.32208,0.0444 -0.005,-6.24544 0,-10e-6 z"
     id="path4278" />
  <path
     style="opacity:1;fill:#1a1a1a;fill-opacity:1;stroke:none;stroke-width:1.1478101;stroke-miterlimit:4;stroke-dasharray:none;stroke-opacity:1"
     d="m 164.34998,73.303556 c -3.09509,-0.331078 -7.57651,-1.699966 -10.69032,-3.265451 -7.59929,-3.820576 -13.46664,-11.240286 -15.64961,-19.790102 -1.05479,-4.131223 -1.00487,-10.635566 0.11338,-14.7735 3.05982,-11.322372 12.06313,-19.788564 23.63835,-22.228137 2.50186,-0.527287 8.97624,-0.527287 11.4781,0 11.74176,2.474672 20.51812,10.814422 23.63429,22.458522 1.91624,7.160391 0.76659,15.657324 -3.01202,22.261491 -4.26691,7.457588 -11.79637,13.017612 -19.88963,14.687201 -3.23806,0.667994 -7.04815,0.925353 -9.62254,0.649976 z m 6.86435,-12.555653 c 2.36198,-0.599107 4.93469,-2.055678 6.90538,-3.909563 2.93706,-2.76297 4.56586,-5.410527 5.57995,-9.069978 0.58555,-2.113033 0.63695,-7.204559 0.0992,-9.821343 -0.76579,-3.726115 -2.90866,-7.530229 -5.39882,-9.584233 -1.71084,-1.411177 -4.81043,-3.073859 -6.94543,-3.725659 -8.37721,-2.557512 -17.11449,2.523832 -20.29026,11.80022 -0.53553,1.564271 -0.62983,2.246777 -0.71879,5.202242 -0.15402,5.116713 0.61169,8.135215 3.00302,11.838181 3.95714,6.127612 10.96464,8.995224 17.7658,7.270133 z"
     id="path4280" />
  <path
     style="opacity:1;fill:#1a1a1a;fill-opacity:1;stroke:none;stroke-width:1.1478101;stroke-miterlimit:4;stroke-dasharray:none;stroke-opacity:1"
     d="m 164.23451,55.289213 c -5.06572,-1.814537 -8.44516,-6.8358 -8.43293,-12.5299 0.008,-3.605505 0.93491,-6.331024 3.04003,-8.936498 2.84273,-3.518393 6.50774,-4.993092 10.37556,-4.174839 2.28521,0.483449 3.79091,1.331431 5.61785,3.163877 2.65066,2.658659 3.90647,5.882016 3.91494,10.048707 0.0102,5.040034 -2.71598,9.658978 -6.97297,11.814023 -1.57894,0.799317 -1.84059,0.859811 -4.0511,0.936635 -1.8603,0.06465 -2.60321,-0.0039 -3.49138,-0.322005 z"
     id="path4282" />
  <path
     style="opacity:1;fill:#1a1a1a;fill-opacity:1;stroke:none;stroke-width:1.1478101;stroke-miterlimit:4;stroke-dasharray:none;stroke-opacity:1"
     d="m 209.81226,84.040963 0,-4.769836 5.57026,0.08806 c 5.09041,0.08048 5.67816,0.13074 6.82287,0.583454 1.98754,0.78604 2.91101,2.02123 2.91101,3.893621 0,1.79562 -1.17641,3.238685 -3.50083,4.29436 -1.03183,0.468621 -1.50236,0.511813 -6.45811,0.592811 l -5.3452,0.08736 0,-4.769837 z"
     id="path4284" />
  <path
     style="opacity:1;fill:#1a1a1a;fill-opacity:1;stroke:none;stroke-width:1.1478101;stroke-miterlimit:4;stroke-dasharray:none;stroke-opacity:1"
     d="m 209.81226,99.229315 0,-4.838808 4.44496,0.0061 c 7.65616,0.0105 9.74825,0.410063 11.86129,2.265337 1.60431,1.408608 2.1786,3.803026 1.26965,5.293646 -1.03002,1.68915 -3.39145,2.10827 -11.89311,2.11082 l -5.68279,0.002 0,-4.83881 0,-3e-6 z"
     id="path4286" />
</svg>
